<?xml version="1.0" encoding="utf-8"?>
<!-- Generator: Adobe Illustrator 16.0.3, SVG Export Plug-In . SVG Version: 6.00 Build 0)  -->
<!DOCTYPE svg PUBLIC "-//W3C//DTD SVG 1.1//EN" "http://www.w3.org/Graphics/SVG/1.1/DTD/svg11.dtd">
<svg version="1.1" id="Layer_1" xmlns="http://www.w3.org/2000/svg" xmlns:xlink="http://www.w3.org/1999/xlink" x="0px" y="0px"
	 width="96px" height="96px" viewBox="0 0 96 96" enable-background="new 0 0 96 96" xml:space="preserve">
<g id="DO_NOT_EDIT_-_BOUNDING_BOX">
	<rect id="BOUNDING_BOX" fill="none" width="96" height="96"/>
</g>
<g id="DO_NOT_EDIT_-_SHADOW">
	<path id="SHADOW" opacity="0.4" enable-background="new    " d="M88.023,49c0,29.633-10.364,40-40,40c-29.635,0-40-10.367-40-40
		c0-29.634,10.366-40,40-40C77.659,9,88.023,19.365,88.023,49z"/>
</g>
<g id="ORANGE_BACKGROUNDS">
	<g id="ORANGE_5">
		
			<linearGradient id="RED_x2F_ORANGE_5_2_" gradientUnits="userSpaceOnUse" x1="48" y1="88.9902" x2="48" y2="9.0107" gradientTransform="matrix(1 0 0 -1 0 97)">
			<stop  offset="0" style="stop-color:#FFDB62"/>
			<stop  offset="0.1393" style="stop-color:#FAD15C"/>
			<stop  offset="0.3741" style="stop-color:#EDB74D"/>
			<stop  offset="0.4848" style="stop-color:#E6A844"/>
			<stop  offset="1" style="stop-color:#C96B25"/>
		</linearGradient>
		<path id="RED_x2F_ORANGE_5_1_" fill="url(#RED_x2F_ORANGE_5_2_)" d="M8,47.988c0,29.634,10.365,40.001,40,40.001
			c29.637,0,40-10.367,40-40.001C88,19.004,78.074,8.459,49.909,8.01h-3.817C17.928,8.459,8,19.004,8,47.988z"/>
		
			<linearGradient id="HIGHLIGHTS_RO5_1_" gradientUnits="userSpaceOnUse" x1="48" y1="88.7441" x2="48" y2="9.4957" gradientTransform="matrix(1 0 0 -1 0 97)">
			<stop  offset="0" style="stop-color:#FFFFFF"/>
			<stop  offset="0.0958" style="stop-color:#FDF8F5"/>
			<stop  offset="0.2579" style="stop-color:#F6E6DB"/>
			<stop  offset="0.4666" style="stop-color:#EBC9AF"/>
			<stop  offset="0.7136" style="stop-color:#DCA073"/>
			<stop  offset="0.9904" style="stop-color:#CA6D28"/>
			<stop  offset="1" style="stop-color:#C96B25"/>
		</linearGradient>
		<path id="HIGHLIGHTS_RO5" opacity="0.25" fill="url(#HIGHLIGHTS_RO5_1_)" enable-background="new    " d="M48,8
			C18.365,8,8,18.365,8,48c0,29.633,10.365,40,40,40c29.637,0,40-10.367,40-40C88,18.365,77.637,8,48,8z M48,87.023
			C18.842,87.023,9,77.176,9,48S18.842,8.977,48,8.977S87,18.824,87,48S77.158,87.023,48,87.023z"/>
	</g>
</g>
<g id="PLACE_YOUR_GRAPHIC_HERE">
	<g>
		<path d="M70.057,60.916l-1.469-4.885c1.58-3.194,2.473-6.789,2.473-10.593c0-13.217-10.715-23.932-23.934-23.932
			c-13.217,0-23.931,10.714-23.931,23.932c0,13.216,10.714,23.931,23.931,23.931c4.012,0,7.788-0.991,11.107-2.734l5.266,1.242
			l9.307,2.196L70.057,60.916z M61.188,54.52c-1.674,7.023-9.024,5.099-9.024,5.099c-4.69-0.879-8.654-4.206-10.413-5.894
			l-0.01,0.01l-1.997-1.995l0.005-0.009c-1.373-1.338-5.44-5.687-6.425-10.952c0,0-1.93-7.351,5.095-9.023
			c0.983-0.235,1.556,0.845,1.556,0.845l1.743,4.668c0.557,1.062-0.184,1.688-0.184,1.688l-1.951,2.35
			c0.195-0.171-2.208,1.942,3.745,8.083l-0.001,0.002l0.296,0.297h0.002c6.14,5.949,8.255,3.547,8.083,3.746l2.275-2.035
			c0,0,0.625-0.736,1.688-0.181l4.67,1.748C60.341,52.969,61.419,53.536,61.188,54.52z"/>
		<path fill-opacity="0.02" d="M72.807,74.67c-0.275,0-0.555-0.031-0.828-0.095l-13.306-3.14c-3.6,1.656-7.583,2.529-11.546,2.529
			c-15.223,0-27.608-12.385-27.608-27.608c0-15.224,12.385-27.609,27.608-27.609c15.225,0,27.609,12.385,27.609,27.609
			c0,3.779-0.748,7.433-2.228,10.868l3.818,12.709c0.375,1.258,0.051,2.627-0.847,3.58C74.792,74.249,73.816,74.67,72.807,74.67z
			 M54.35,57.102c1.17,0,1.859-0.281,2.303-0.668l-1.234-0.463c0,0-1.26,1.127-1.261,1.129C54.221,57.1,54.285,57.102,54.35,57.102z
			 M37.427,37.213c-0.082,0.093-0.154,0.191-0.217,0.296c-0.41,0.681-0.478,1.616-0.44,2.348l1.134-1.366L37.427,37.213z"/>
		<path fill-opacity="0.05" d="M72.807,73.751c-0.209,0-0.418-0.024-0.623-0.071l-13.61-3.212
			c-3.556,1.688-7.505,2.579-11.445,2.579c-14.716,0-26.689-11.973-26.689-26.689c0-14.717,11.973-26.69,26.689-26.69
			c14.718,0,26.69,11.973,26.69,26.69c0,3.766-0.77,7.401-2.285,10.808l3.915,13.032c0.28,0.942,0.038,1.972-0.636,2.686
			C74.296,73.436,73.564,73.751,72.807,73.751z M51.053,57.402c0.527,0.177,1.067,0.32,1.617,0.425
			c0.557,0.128,1.141,0.192,1.68,0.192c1.885,0,3.069-0.633,3.743-2.029c-1.551-0.58-2.401-0.898-2.874-1.075l-1.672,1.494
			c-0.176,0.157-0.367,0.29-0.572,0.396C52.486,57.118,51.805,57.332,51.053,57.402z M37.871,35.774
			c-0.65,0.312-1.128,0.728-1.449,1.26c-0.977,1.621-0.431,3.97-0.425,3.993c0.126,0.668,0.309,1.32,0.533,1.95
			c0.073-0.988,0.395-1.703,0.674-2.148c0.088-0.159,0.214-0.315,0.254-0.363l1.493-1.798L37.871,35.774z"/>
		<path fill-opacity="0.05" d="M72.807,72.831c-0.142,0-0.281-0.017-0.418-0.048l-13.922-3.284c-3.51,1.722-7.422,2.628-11.34,2.628
			c-14.209,0-25.77-11.561-25.77-25.769c0-14.21,11.56-25.771,25.77-25.771s25.771,11.561,25.771,25.771
			c0,3.75-0.789,7.363-2.347,10.744l4.015,13.361c0.188,0.629,0.024,1.314-0.424,1.791C73.8,72.62,73.313,72.831,72.807,72.831z
			 M42.884,53.197c0.047,0.037,0.093,0.076,0.138,0.119c1.759,1.688,5.33,4.636,9.478,5.414c0.598,0.138,1.249,0.209,1.85,0.209
			c2.608,0,4.227-1.142,4.93-3.486c0,0-4.258-1.594-4.26-1.594l-2.086,1.865c-0.119,0.104-0.246,0.193-0.381,0.262
			c-0.518,0.328-1.25,0.522-2.051,0.522c-2.269,0-5-1.528-8.119-4.542l-0.359-0.355c-0.021-0.021-0.094-0.102-0.113-0.125
			c-5.662-5.859-4.624-9.083-3.913-10.193c0.023-0.047,0.09-0.147,0.167-0.241l1.833-2.207c-0.001-0.003-1.589-4.258-1.589-4.258
			c-1.301,0.391-2.212,1.039-2.775,1.972c-1.186,1.968-0.537,4.658-0.53,4.685c0.92,4.9,4.769,8.959,5.927,10.088
			c0.052,0.05,0.101,0.104,0.146,0.158L42.884,53.197z"/>
		<path fill-opacity="0.1" d="M72.807,71.912c-0.07,0-0.143-0.008-0.211-0.023l-14.24-3.361c-3.461,1.756-7.336,2.682-11.229,2.682
			c-13.703,0-24.851-11.146-24.851-24.85c0-13.703,11.148-24.851,24.851-24.851c13.704,0,24.852,11.148,24.852,24.851
			c0,3.734-0.81,7.323-2.406,10.671l4.115,13.698c0.094,0.314,0.013,0.655-0.213,0.896C73.299,71.811,73.057,71.912,72.807,71.912z
			 M42.28,53.895c0.037,0.024,0.072,0.055,0.105,0.086c1.833,1.76,5.564,4.832,9.945,5.653c0.07,0.015,0.9,0.226,2.02,0.226
			c3.211,0,5.209-1.559,5.941-4.633c0.051-0.219-0.252-0.44-0.352-0.506l-4.592-1.72c-0.037-0.015-0.07-0.028-0.104-0.047
			c-0.133-0.067-0.248-0.103-0.346-0.103c-0.123,0-0.217,0.063-0.217,0.063c-0.027,0.032-0.059,0.063-0.09,0.09L52.32,55.04
			c-0.059,0.052-0.121,0.096-0.188,0.13c-0.434,0.271-1.007,0.42-1.631,0.42c-2.022,0-4.539-1.439-7.48-4.283
			c-0.018-0.017-0.347-0.346-0.347-0.346c-0.02-0.02-0.038-0.039-0.055-0.061c-5.31-5.5-4.39-8.262-3.846-9.112
			c0.028-0.052,0.062-0.103,0.101-0.149l1.951-2.35c0.034-0.042,0.073-0.08,0.114-0.115c0.061-0.066,0.131-0.24-0.037-0.559
			c-0.018-0.034-0.034-0.069-0.048-0.106l-1.715-4.594c-0.087-0.134-0.287-0.355-0.445-0.355c-1.82,0.427-3.093,1.274-3.848,2.525
			c-1.4,2.322-0.643,5.351-0.635,5.382c0.96,5.119,4.971,9.348,6.177,10.523c0.036,0.035,0.069,0.072,0.098,0.111L42.28,53.895z"/>
		<path fill-opacity="0.1" d="M70.057,61.835l-1.469-4.885c1.58-3.193,2.473-6.788,2.473-10.592
			c0-13.217-10.715-23.932-23.934-23.932c-13.217,0-23.931,10.714-23.931,23.932c0,13.216,10.714,23.931,23.931,23.931
			c4.012,0,7.788-0.991,11.107-2.734l5.266,1.242l9.307,2.195L70.057,61.835z M61.188,55.439c-1.674,7.022-9.024,5.098-9.024,5.098
			c-4.69-0.879-8.654-4.206-10.413-5.895l-0.01,0.01l-1.997-1.994l0.005-0.01c-1.373-1.338-5.44-5.687-6.425-10.95
			c0,0-1.93-7.351,5.095-9.023c0.983-0.235,1.556,0.845,1.556,0.845l1.743,4.668c0.557,1.062-0.184,1.688-0.184,1.688l-1.951,2.349
			c0.195-0.17-2.208,1.943,3.745,8.083l-0.001,0.002l0.296,0.297h0.002c6.14,5.949,8.255,3.548,8.083,3.746l2.275-2.033
			c0,0,0.625-0.737,1.688-0.182l4.67,1.747C60.341,53.889,61.419,54.455,61.188,55.439z"/>
		
			<linearGradient id="SVGID_1_" gradientUnits="userSpaceOnUse" x1="48.0015" y1="26.9272" x2="48.0015" y2="75.4946" gradientTransform="matrix(1 0 0 -1 0 97)">
			<stop  offset="0" style="stop-color:#CCCCCC"/>
			<stop  offset="1" style="stop-color:#FFFFFF"/>
		</linearGradient>
		<path fill="url(#SVGID_1_)" d="M70.057,60.916l-1.469-4.885c1.58-3.194,2.473-6.789,2.473-10.593
			c0-13.217-10.715-23.932-23.934-23.932c-13.217,0-23.931,10.714-23.931,23.932c0,13.216,10.714,23.931,23.931,23.931
			c4.012,0,7.788-0.991,11.107-2.734l5.266,1.242l9.307,2.196L70.057,60.916z M61.188,54.52c-1.674,7.023-9.024,5.099-9.024,5.099
			c-4.69-0.879-8.654-4.206-10.413-5.894l-0.01,0.01l-1.997-1.995l0.005-0.009c-1.373-1.338-5.44-5.687-6.425-10.952
			c0,0-1.93-7.351,5.095-9.023c0.983-0.235,1.556,0.845,1.556,0.845l1.743,4.668c0.557,1.062-0.184,1.688-0.184,1.688l-1.951,2.35
			c0.195-0.171-2.208,1.942,3.745,8.083l-0.001,0.002l0.296,0.297h0.002c6.14,5.949,8.255,3.547,8.083,3.746l2.275-2.035
			c0,0,0.625-0.736,1.688-0.181l4.67,1.748C60.341,52.969,61.419,53.536,61.188,54.52z"/>
		<g>
			<path fill="#FFFFFF" d="M39.582,42.307l1.951-2.35c0,0,0.605-0.526,0.29-1.424c-0.116,0.274-0.29,0.424-0.29,0.424l-1.951,2.35
				c0.099-0.086-0.467,0.418-0.275,1.734C39.406,42.473,39.65,42.248,39.582,42.307z"/>
			<path fill="#FFFFFF" d="M33.323,41.779c0.985,5.265,5.052,9.614,6.425,10.952l-0.005,0.009l1.997,1.995l0.01-0.01
				c1.759,1.688,5.722,5.015,10.413,5.894c0,0,7.353,1.926,9.024-5.099c0.067-0.287,0.018-0.533-0.078-0.746
				c-1.795,6.703-8.946,4.845-8.946,4.845c-4.69-0.879-8.654-4.206-10.413-5.894l-0.01,0.01l-1.997-1.995l0.005-0.009
				c-1.373-1.338-5.44-5.687-6.425-10.952c0,0-0.173-0.673-0.226-1.651C33.027,40.622,33.323,41.779,33.323,41.779z"/>
			<path fill="#FFFFFF" d="M47.127,22.507c13.038,0,23.633,10.427,23.919,23.396c0.003-0.155,0.015-0.308,0.015-0.464
				c0-13.217-10.715-23.932-23.934-23.932c-13.217,0-23.931,10.714-23.931,23.932c0,0.167,0.009,0.333,0.013,0.5
				C23.476,32.953,34.078,22.507,47.127,22.507z"/>
			<path fill="#FFFFFF" d="M70.057,60.916l-1.287-4.279c-0.062,0.131-0.117,0.266-0.182,0.396l1.469,4.885l2.426,8.081l0.324,0.076
				L70.057,60.916z"/>
		</g>
	</g>
</g>
<g id="DO_NOT_EDIT_-_FOCAL_ZONE_GUIDES_ONLY">
</g>
</svg>
